<svg width="1440" height="129" viewBox="0 0 1440 129" fill="none" xmlns="http://www.w3.org/2000/svg">
<g style="mix-blend-mode:plus-lighter" opacity="0.03">
<path d="M897.471 202.666H868.086V202.695L848.943 89.041L794.201 211.406L740.013 88.749L720.229 202.666H690.902L730.384 0L795.835 146.453L861.87 0L897.471 202.666ZM567.354 9.85156C623.817 9.85175 665.194 52.2673 665.194 107.604C665.194 162.94 623.555 205.414 567.354 205.414C510.86 205.414 469.308 162.998 469.308 107.604C469.308 52.2087 510.89 9.85156 567.354 9.85156ZM362.04 14.207C384.888 14.207 399.508 17.0133 411.705 25.2275C432.248 39.0543 433.999 61.3581 433.999 69.6016C433.999 96.7289 417.366 116.49 392.213 122.132L450.924 202.725H416.229V202.695L362.332 125.522H357.255V202.695H328.483V14.207H362.04ZM1373.69 14.207C1396.6 14.207 1411.22 17.0133 1423.36 25.2275C1443.96 39.0543 1445.65 61.3581 1445.65 69.6016C1445.65 96.7289 1429.02 116.49 1403.92 122.132L1462.63 202.725H1427.88V202.695L1373.99 125.522H1368.91V202.695H1340.14V14.207H1373.69ZM23.3154 14.207C47.5638 14.2071 62.796 17.276 75.2559 28.8516C85.3523 38.4689 90.167 50.6302 90.167 66.1816C90.167 73.5188 89.0581 81.1775 84.5352 88.5146C80.3625 95.8516 74.6435 99.5347 70.4707 101.552C73.8267 102.4 85.3812 105.47 94.7188 115.087C104.874 125.844 107.121 138.794 107.121 150.399C107.121 163.992 103.765 174.75 94.7188 184.309L94.6904 184.279C79.7211 200.123 56.3184 202.695 41.9033 202.695H-5.16504V14.207H23.3154ZM304.701 202.695H273.683L253.897 157.151H173.535L152.934 202.695H121.886L215.555 3.15723L304.701 202.695ZM1173.57 41.334H1130.45V202.695H1101.62V41.334H1058.52V14.207H1173.57V41.334ZM1040.86 41.334H965.869V89.041H1038.64V116.168H965.869V175.539H1040.86V202.666H937.097V14.207H1040.86V41.334ZM1302.81 41.334H1227.82V89.041H1300.6V116.168H1227.82V175.539H1302.81V202.666H1199.05V14.207H1302.81V41.334ZM566.733 37.501C526.26 37.501 497.576 67.0259 497.576 108.652C497.576 150.279 526.26 179.803 566.733 179.803C566.738 179.803 566.743 179.802 566.748 179.802C566.753 179.802 566.758 179.803 566.763 179.803C607.236 179.803 635.716 150.63 635.716 108.652C635.716 88.6284 629.091 71.6741 618.032 59.4551L618.016 59.4697L618.003 59.4551L617.974 59.4834L576.14 115.771L557.366 101.637L599.503 45.043C590.019 40.1028 579.018 37.501 566.763 37.501H566.733ZM23.582 175.595H41.0615C49.2904 175.595 62.2169 174.192 69.541 168.199C75.2604 163.727 78.8789 155.775 78.8789 147.327C78.8788 139.639 76.1067 132.331 71.292 127.508V127.537C63.3549 119.937 51.7699 119.09 41.6152 119.09H23.582V175.595ZM214.397 66.2148L214.383 66.1826L185.349 130.083H242.338L214.412 66.1826L214.397 66.2148ZM357.218 40.9111V100.778H366.234C374.171 100.778 406.357 99.9307 406.357 69.9971C406.357 44.2558 382.752 41.0916 368.489 40.9189L367.139 40.9111H357.218ZM1368.88 100.646H1377.92C1385.86 100.646 1417.96 99.7975 1417.96 69.8643H1417.99C1417.99 43.2927 1392.92 40.7783 1378.77 40.7783H1368.88V100.646ZM23.582 95.2695H32.3359C39.3682 95.2695 48.9977 94.4217 55.7383 87.9326C62.2163 81.7354 63.0635 72.9358 63.0635 66.4463C63.0635 60.8045 62.2458 54.0226 56.3223 48.3809C49.8444 42.1839 41.6157 41.336 33.4746 41.3359H23.582V95.2695Z" fill="white"/>
</g>
</svg>
