<svg width="92" height="28" viewBox="0 0 92 28" fill="none" xmlns="http://www.w3.org/2000/svg">
<g clip-path="url(#clip0_27_2538)">
<path d="M3.35878 1.86061V9.39096H2.01492V1.86061H0V0.593262H5.37199V1.8589H3.35706L3.35878 1.86061Z" fill="white"/>
<path d="M8.12671 0.593262C9.19323 0.593262 9.878 0.725313 10.4429 1.10775C11.405 1.75428 11.4838 2.79526 11.4838 3.17769C11.4838 4.44333 10.7066 5.36768 9.5339 5.63179L12.273 9.39096H10.6535L8.13869 5.78956H7.90245V9.39096H6.55859V0.593262H8.12671ZM7.90245 4.62854H8.32358C8.69164 4.62854 10.193 4.5891 10.193 3.19141C10.193 1.9515 9.02204 1.83317 8.36295 1.83317H7.90245V4.63026V4.62854Z" fill="white"/>
<path d="M18.7557 7.26818H15.0031L14.0411 9.39128H12.5928L16.965 0.0791016L21.125 9.39128H19.6767L18.7557 7.26818ZM18.2147 6.00254L16.9102 3.02196L15.5544 6.00254H18.2147Z" fill="white"/>
<path d="M22.2373 9.39107V0L28.6091 6.68831V0.593373H29.9512V9.93299L23.5794 3.2464V9.39107H22.2373Z" fill="white"/>
<path d="M35.8565 2.54665C35.7778 2.34943 35.6596 2.16422 35.4628 1.99272C35.1854 1.76806 34.8961 1.67717 34.5144 1.67717C33.6978 1.67717 33.2767 2.16593 33.2767 2.73187C33.2767 2.99597 33.3691 3.45729 34.2251 3.80028L35.1067 4.15699C36.7262 4.81725 37.1747 5.73989 37.1747 6.74142C37.1747 8.41693 35.9883 9.56423 34.3432 9.56423C33.3297 9.56423 32.7237 9.1818 32.2769 8.68103C31.8027 8.15282 31.5921 7.57317 31.5391 6.96608L32.8692 6.67625C32.8692 7.11185 33.0267 7.52001 33.2373 7.79783C33.4872 8.11338 33.8553 8.32432 34.3826 8.32432C35.1991 8.32432 35.8308 7.73095 35.8308 6.84775C35.8308 5.96455 35.1461 5.58211 34.5674 5.34374L33.7252 4.98703C33.001 4.68348 31.9345 4.07639 31.9345 2.75759C31.9345 1.57084 32.8555 0.435547 34.5024 0.435547C35.4508 0.435547 35.99 0.792257 36.2657 1.02892C36.5019 1.23986 36.7536 1.5434 36.9384 1.91212L35.8582 2.54494L35.8565 2.54665Z" fill="white"/>
<path d="M44.0232 7.26818H40.2707L39.3086 9.39128H37.8604L42.2309 0.0791016L46.3908 9.39128H44.9425L44.0215 7.26818H44.0232ZM43.4823 6.00254L42.1778 3.02196L40.822 6.00254H43.4823Z" fill="white"/>
<path d="M49.4125 1.86061V9.39096H48.0686V1.86061H46.0537V0.593262H51.4257V1.8589H49.4108L49.4125 1.86061Z" fill="white"/>
<path d="M53.9581 0.593262V8.12532H56.538V9.39096H52.6143V0.593262H53.9581Z" fill="white"/>
<path d="M63.0994 7.26818H59.3469L58.3848 9.39128H56.9365L61.3088 0.0791016L65.4687 9.39128H64.0204L63.0994 7.26818ZM62.5585 6.00254L61.254 3.02196L59.8981 6.00254H62.5585Z" fill="white"/>
<path d="M66.5801 9.39107V0L72.9535 6.68831V0.593373H74.2957V9.93299L67.9239 3.2464V9.39107H66.5801Z" fill="white"/>
<path d="M78.8422 1.86061V9.39096H77.4983V1.86061H75.4834V0.593262H80.8554V1.8589H78.8405L78.8422 1.86061Z" fill="white"/>
<path d="M83.3871 0.593262V9.39096H82.0449V0.593262H83.3871Z" fill="white"/>
<path d="M91.9996 2.65149C91.0256 1.76829 90.1165 1.67568 89.6167 1.67568C87.7079 1.67568 86.4171 3.08709 86.4171 5.0267C86.4171 6.9663 87.7609 8.32455 89.6304 8.32455C90.6832 8.32455 91.4998 7.78434 91.9996 7.30929V8.90591C91.118 9.43412 90.197 9.56617 89.591 9.56617C87.9972 9.56617 86.9974 8.84074 86.4839 8.3537C85.4567 7.39161 85.0732 6.27003 85.0732 5.03013C85.0732 3.40778 85.746 2.2862 86.4839 1.58822C87.3912 0.730745 88.444 0.440918 89.656 0.440918C90.4606 0.440918 91.2361 0.586689 91.9996 1.07373V2.65149Z" fill="white"/>
<path d="M5.1481 18.7461H4.63281V15.582H5.21315C5.69078 15.582 6.17354 15.6318 6.55358 15.9953C6.9011 16.3263 6.94903 16.7242 6.94903 17.0552C6.94903 17.4359 6.89939 17.9521 6.51934 18.3157C6.12389 18.6964 5.55896 18.7461 5.14639 18.7461H5.1481Z" fill="white"/>
<path d="M7.43179 20.6375C7.71426 20.9204 7.87689 21.3492 7.87689 21.8002C7.87689 22.2958 7.66461 22.7623 7.32908 23.0247C6.89939 23.3762 6.14101 23.4586 5.65825 23.4586H4.63281V20.1436H5.69078C6.28652 20.1436 6.96615 20.1933 7.43179 20.6392V20.6375Z" fill="white"/>
<path d="M15.8284 17.0397L14.125 20.7886H17.4667L15.8284 17.0397ZM15.8284 17.0397L14.125 20.7886H17.4667L15.8284 17.0397ZM15.8284 17.0397L14.125 20.7886H17.4667L15.8284 17.0397ZM24.7885 15.5494H24.2082V19.0616H24.7355C25.2011 19.0616 27.0893 19.0119 27.0893 17.2558C27.0893 15.6969 25.6137 15.5494 24.7885 15.5494ZM39.5418 16.5852L37.0869 19.8882L35.9844 19.0582L38.4565 15.738C37.9001 15.4482 37.2547 15.2956 36.5357 15.2956C34.1613 15.2956 32.4784 17.0277 32.4784 19.4698C32.4784 21.9118 34.1613 23.6439 36.5357 23.6439C38.9101 23.6439 40.5809 21.9324 40.5809 19.4698C40.5809 18.295 40.1923 17.3003 39.5435 16.5835L39.5418 16.5852ZM39.5418 16.5852L37.0869 19.8882L35.9844 19.0582L38.4565 15.738C37.9001 15.4482 37.2547 15.2956 36.5357 15.2956C34.1613 15.2956 32.4784 17.0277 32.4784 19.4698C32.4784 21.9118 34.1613 23.6439 36.5357 23.6439C38.9101 23.6439 40.5809 21.9324 40.5809 19.4698C40.5809 18.295 40.1923 17.3003 39.5435 16.5835L39.5418 16.5852ZM24.7885 15.5494H24.2082V19.0616H24.7355C25.2011 19.0616 27.0893 19.0119 27.0893 17.2558C27.0893 15.6969 25.6137 15.5494 24.7885 15.5494ZM15.8284 17.0397L14.125 20.7886H17.4667L15.8284 17.0397ZM15.8284 17.0397L14.125 20.7886H17.4667L15.8284 17.0397ZM24.7885 15.5494H24.2082V19.0616H24.7355C25.2011 19.0616 27.0893 19.0119 27.0893 17.2558C27.0893 15.6969 25.6137 15.5494 24.7885 15.5494ZM39.5418 16.5852L37.0869 19.8882L35.9844 19.0582L38.4565 15.738C37.9001 15.4482 37.2547 15.2956 36.5357 15.2956C34.1613 15.2956 32.4784 17.0277 32.4784 19.4698C32.4784 21.9118 34.1613 23.6439 36.5357 23.6439C38.9101 23.6439 40.5809 21.9324 40.5809 19.4698C40.5809 18.295 40.1923 17.3003 39.5435 16.5835L39.5418 16.5852ZM39.5418 16.5852L37.0869 19.8882L35.9844 19.0582L38.4565 15.738C37.9001 15.4482 37.2547 15.2956 36.5357 15.2956C34.1613 15.2956 32.4784 17.0277 32.4784 19.4698C32.4784 21.9118 34.1613 23.6439 36.5357 23.6439C38.9101 23.6439 40.5809 21.9324 40.5809 19.4698C40.5809 18.295 40.1923 17.3003 39.5435 16.5835L39.5418 16.5852ZM24.7885 15.5494H24.2082V19.0616H24.7355C25.2011 19.0616 27.0893 19.0119 27.0893 17.2558C27.0893 15.6969 25.6137 15.5494 24.7885 15.5494ZM15.8284 17.0397L14.125 20.7886H17.4667L15.8284 17.0397ZM15.8284 17.0397L14.125 20.7886H17.4667L15.8284 17.0397ZM24.7885 15.5494H24.2082V19.0616H24.7355C25.2011 19.0616 27.0893 19.0119 27.0893 17.2558C27.0893 15.6969 25.6137 15.5494 24.7885 15.5494ZM39.5418 16.5852L37.0869 19.8882L35.9844 19.0582L38.4565 15.738C37.9001 15.4482 37.2547 15.2956 36.5357 15.2956C34.1613 15.2956 32.4784 17.0277 32.4784 19.4698C32.4784 21.9118 34.1613 23.6439 36.5357 23.6439C38.9101 23.6439 40.5809 21.9324 40.5809 19.4698C40.5809 18.295 40.1923 17.3003 39.5435 16.5835L39.5418 16.5852ZM39.5418 16.5852L37.0869 19.8882L35.9844 19.0582L38.4565 15.738C37.9001 15.4482 37.2547 15.2956 36.5357 15.2956C34.1613 15.2956 32.4784 17.0277 32.4784 19.4698C32.4784 21.9118 34.1613 23.6439 36.5357 23.6439C38.9101 23.6439 40.5809 21.9324 40.5809 19.4698C40.5809 18.295 40.1923 17.3003 39.5435 16.5835L39.5418 16.5852ZM24.7885 15.5494H24.2082V19.0616H24.7355C25.2011 19.0616 27.0893 19.0119 27.0893 17.2558C27.0893 15.6969 25.6137 15.5494 24.7885 15.5494ZM15.8284 17.0397L14.125 20.7886H17.4667L15.8284 17.0397ZM0 11.0391V27.9999H92V11.0391H0ZM8.80438 23.9681C7.92617 24.8976 6.55321 25.0485 5.70752 25.0485H2.94621V13.9905H4.61703C6.03964 13.9905 6.93325 14.1706 7.66424 14.8497C8.25657 15.4139 8.53903 16.1273 8.53903 17.0397C8.53903 17.4701 8.47398 17.9194 8.20863 18.3499C7.96383 18.7803 7.62829 18.9964 7.38349 19.1148C7.58036 19.1645 8.25828 19.3446 8.80609 19.9088C9.40184 20.5399 9.53365 21.2996 9.53365 21.9804C9.53365 22.7779 9.33678 23.409 8.80609 23.9698L8.80438 23.9681ZM19.3053 25.0485L18.1446 22.3766H13.43L12.2214 25.0485H10.3999L15.8951 13.3422L21.125 25.0485H19.307H19.3053ZM27.668 25.0485L24.5061 20.521H24.2082V25.0485H22.5202V13.9905H24.4889C25.8294 13.9905 26.687 14.1551 27.4026 14.637C28.6078 15.4482 28.7105 16.7567 28.7105 17.2403C28.7105 18.8318 27.7347 19.9911 26.2591 20.3221L29.7034 25.0502H27.668V25.0485ZM36.534 25.208C33.2197 25.208 30.7819 22.7196 30.7819 19.4698C30.7819 16.2199 33.2214 13.735 36.534 13.735C39.8465 13.735 42.274 16.2234 42.274 19.4698C42.274 22.7162 39.8311 25.208 36.534 25.208ZM54.177 25.0485L53.0539 18.3808L49.8424 25.5595L46.6634 18.3636L45.5027 25.0468H43.7822L46.0984 13.157L49.9383 21.7489L53.8123 13.157L55.9009 25.0468H54.177V25.0485ZM64.3132 15.582H59.9136V18.3808H64.1831V19.9722H59.9136V23.4553H64.3132V25.0468H58.2256V13.9905H64.3132V15.582ZM72.0973 15.582H69.5688V25.0485H67.8774V15.582H65.3489V13.9905H72.099V15.582H72.0973ZM79.6811 15.582H75.2814V18.3808H79.551V19.9722H75.2814V23.4553H79.6811V25.0468H73.5935V13.9905H79.6811V15.582ZM87.0183 25.0485L83.8564 20.521H83.5586V25.0485H81.8706V13.9905H83.8393C85.1832 13.9905 86.0408 14.1551 86.753 14.637C87.9616 15.4482 88.0609 16.7567 88.0609 17.2403C88.0609 18.8318 87.0851 19.9911 85.6129 20.3221L89.0572 25.0502H87.0183V25.0485ZM86.438 17.2558C86.438 15.6969 84.9675 15.5494 84.1372 15.5494H83.5568V19.0616H84.0875C84.5532 19.0616 86.4363 19.0119 86.4363 17.2558H86.438ZM37.0852 19.8882L35.9827 19.0582L38.4547 15.738C37.8984 15.4482 37.253 15.2956 36.534 15.2956C34.1595 15.2956 32.4767 17.0277 32.4767 19.4698C32.4767 21.9118 34.1595 23.6439 36.534 23.6439C38.9084 23.6439 40.5792 21.9324 40.5792 19.4698C40.5792 18.295 40.1906 17.3003 39.5418 16.5835L37.0869 19.8865L37.0852 19.8882ZM27.0876 17.2558C27.0876 15.6969 25.612 15.5494 24.7868 15.5494H24.2065V19.0616H24.7337C25.1994 19.0616 27.0876 19.0119 27.0876 17.2558ZM14.1233 20.7886H17.465L15.8267 17.0397L14.1233 20.7886ZM15.8267 17.0397L14.1233 20.7886H17.465L15.8267 17.0397ZM24.7868 15.5494H24.2065V19.0616H24.7337C25.1994 19.0616 27.0876 19.0119 27.0876 17.2558C27.0876 15.6969 25.612 15.5494 24.7868 15.5494ZM39.5401 16.5852L37.0852 19.8882L35.9827 19.0582L38.4547 15.738C37.8984 15.4482 37.253 15.2956 36.534 15.2956C34.1595 15.2956 32.4767 17.0277 32.4767 19.4698C32.4767 21.9118 34.1595 23.6439 36.534 23.6439C38.9084 23.6439 40.5792 21.9324 40.5792 19.4698C40.5792 18.295 40.1906 17.3003 39.5418 16.5835L39.5401 16.5852ZM39.5401 16.5852L37.0852 19.8882L35.9827 19.0582L38.4547 15.738C37.8984 15.4482 37.253 15.2956 36.534 15.2956C34.1595 15.2956 32.4767 17.0277 32.4767 19.4698C32.4767 21.9118 34.1595 23.6439 36.534 23.6439C38.9084 23.6439 40.5792 21.9324 40.5792 19.4698C40.5792 18.295 40.1906 17.3003 39.5418 16.5835L39.5401 16.5852ZM24.7868 15.5494H24.2065V19.0616H24.7337C25.1994 19.0616 27.0876 19.0119 27.0876 17.2558C27.0876 15.6969 25.612 15.5494 24.7868 15.5494ZM15.8267 17.0397L14.1233 20.7886H17.465L15.8267 17.0397ZM15.8267 17.0397L14.1233 20.7886H17.465L15.8267 17.0397ZM24.7868 15.5494H24.2065V19.0616H24.7337C25.1994 19.0616 27.0876 19.0119 27.0876 17.2558C27.0876 15.6969 25.612 15.5494 24.7868 15.5494ZM39.5401 16.5852L37.0852 19.8882L35.9827 19.0582L38.4547 15.738C37.8984 15.4482 37.253 15.2956 36.534 15.2956C34.1595 15.2956 32.4767 17.0277 32.4767 19.4698C32.4767 21.9118 34.1595 23.6439 36.534 23.6439C38.9084 23.6439 40.5792 21.9324 40.5792 19.4698C40.5792 18.295 40.1906 17.3003 39.5418 16.5835L39.5401 16.5852ZM39.5401 16.5852L37.0852 19.8882L35.9827 19.0582L38.4547 15.738C37.8984 15.4482 37.253 15.2956 36.534 15.2956C34.1595 15.2956 32.4767 17.0277 32.4767 19.4698C32.4767 21.9118 34.1595 23.6439 36.534 23.6439C38.9084 23.6439 40.5792 21.9324 40.5792 19.4698C40.5792 18.295 40.1906 17.3003 39.5418 16.5835L39.5401 16.5852ZM24.7868 15.5494H24.2065V19.0616H24.7337C25.1994 19.0616 27.0876 19.0119 27.0876 17.2558C27.0876 15.6969 25.612 15.5494 24.7868 15.5494ZM15.8267 17.0397L14.1233 20.7886H17.465L15.8267 17.0397ZM15.8267 17.0397L14.1233 20.7886H17.465L15.8267 17.0397ZM24.7868 15.5494H24.2065V19.0616H24.7337C25.1994 19.0616 27.0876 19.0119 27.0876 17.2558C27.0876 15.6969 25.612 15.5494 24.7868 15.5494ZM24.7868 15.5494H24.2065V19.0616H24.7337C25.1994 19.0616 27.0876 19.0119 27.0876 17.2558C27.0876 15.6969 25.612 15.5494 24.7868 15.5494ZM15.8267 17.0397L14.1233 20.7886H17.465L15.8267 17.0397Z" fill="white"/>
</g>
<defs>
<clipPath id="clip0_27_2538">
<rect width="92" height="28" fill="white"/>
</clipPath>
</defs>
</svg>
