<svg width="92" height="34" viewBox="0 0 92 34" fill="none" xmlns="http://www.w3.org/2000/svg">
<g clip-path="url(#clip0_27_2560)">
<path d="M18.9797 23.1854C18.8454 22.7794 18.6327 22.4073 18.353 22.0803C18.0844 21.7758 17.7487 21.539 17.3682 21.3924C16.5401 21.0766 15.6224 21.0766 14.7943 21.3924C14.4138 21.5502 14.0781 21.7871 13.8095 22.0803C13.5297 22.396 13.3171 22.7794 13.1828 23.1854C12.8918 24.1327 12.8918 25.1589 13.1828 26.1061C13.3171 26.5121 13.5297 26.8842 13.8095 27.2C14.0781 27.5045 14.425 27.7413 14.7943 27.8879C15.6224 28.2036 16.5401 28.2036 17.3682 27.8879C17.7487 27.7413 18.0844 27.5045 18.353 27.2C18.6327 26.8842 18.8454 26.5121 18.9797 26.1061C19.2818 25.1589 19.2818 24.1327 18.9797 23.1854ZM18.9797 23.1854C18.8454 22.7794 18.6327 22.4073 18.353 22.0803C18.0844 21.7758 17.7487 21.539 17.3682 21.3924C16.5401 21.0766 15.6224 21.0766 14.7943 21.3924C14.4138 21.5502 14.0781 21.7871 13.8095 22.0803C13.5297 22.396 13.3171 22.7794 13.1828 23.1854C12.8918 24.1327 12.8918 25.1589 13.1828 26.1061C13.3171 26.5121 13.5297 26.8842 13.8095 27.2C14.0781 27.5045 14.425 27.7413 14.7943 27.8879C15.6224 28.2036 16.5401 28.2036 17.3682 27.8879C17.7487 27.7413 18.0844 27.5045 18.353 27.2C18.6327 26.8842 18.8454 26.5121 18.9797 26.1061C19.2818 25.1589 19.2818 24.1327 18.9797 23.1854ZM18.9797 23.1854C18.8454 22.7794 18.6327 22.4073 18.353 22.0803C18.0844 21.7758 17.7487 21.539 17.3682 21.3924C16.5401 21.0766 15.6224 21.0766 14.7943 21.3924C14.4138 21.5502 14.0781 21.7871 13.8095 22.0803C13.5297 22.396 13.3171 22.7794 13.1828 23.1854C12.8918 24.1327 12.8918 25.1589 13.1828 26.1061C13.3171 26.5121 13.5297 26.8842 13.8095 27.2C14.0781 27.5045 14.425 27.7413 14.7943 27.8879C15.6224 28.2036 16.5401 28.2036 17.3682 27.8879C17.7487 27.7413 18.0844 27.5045 18.353 27.2C18.6327 26.8842 18.8454 26.5121 18.9797 26.1061C19.2818 25.1589 19.2818 24.1327 18.9797 23.1854ZM47.5051 23.1854C47.3709 22.7794 47.1582 22.4073 46.8785 22.0915C46.6099 21.7983 46.2742 21.5615 45.8937 21.4149C45.4796 21.257 45.0432 21.1781 44.6067 21.1781H42.5476V28.1134H44.6067C45.0432 28.1247 45.4908 28.0345 45.8937 27.8766C46.263 27.73 46.6099 27.4932 46.8785 27.2C47.1582 26.8842 47.3709 26.5121 47.5051 26.1174C47.7961 25.1589 47.7961 24.1439 47.5051 23.1854ZM47.5051 23.1854C47.3709 22.7794 47.1582 22.4073 46.8785 22.0915C46.6099 21.7983 46.2742 21.5615 45.8937 21.4149C45.4796 21.257 45.0432 21.1781 44.6067 21.1781H42.5476V28.1134H44.6067C45.0432 28.1247 45.4908 28.0345 45.8937 27.8766C46.263 27.73 46.6099 27.4932 46.8785 27.2C47.1582 26.8842 47.3709 26.5121 47.5051 26.1174C47.7961 25.1589 47.7961 24.1439 47.5051 23.1854ZM18.9797 23.1854C18.8454 22.7794 18.6327 22.4073 18.353 22.0803C18.0844 21.7758 17.7487 21.539 17.3682 21.3924C16.5401 21.0766 15.6224 21.0766 14.7943 21.3924C14.4138 21.5502 14.0781 21.7871 13.8095 22.0803C13.5297 22.396 13.3171 22.7794 13.1828 23.1854C12.8918 24.1327 12.8918 25.1589 13.1828 26.1061C13.3171 26.5121 13.5297 26.8842 13.8095 27.2C14.0781 27.5045 14.425 27.7413 14.7943 27.8879C15.6224 28.2036 16.5401 28.2036 17.3682 27.8879C17.7487 27.7413 18.0844 27.5045 18.353 27.2C18.6327 26.8842 18.8454 26.5121 18.9797 26.1061C19.2818 25.1589 19.2818 24.1327 18.9797 23.1854ZM18.9797 23.1854C18.8454 22.7794 18.6327 22.4073 18.353 22.0803C18.0844 21.7758 17.7487 21.539 17.3682 21.3924C16.5401 21.0766 15.6224 21.0766 14.7943 21.3924C14.4138 21.5502 14.0781 21.7871 13.8095 22.0803C13.5297 22.396 13.3171 22.7794 13.1828 23.1854C12.8918 24.1327 12.8918 25.1589 13.1828 26.1061C13.3171 26.5121 13.5297 26.8842 13.8095 27.2C14.0781 27.5045 14.425 27.7413 14.7943 27.8879C15.6224 28.2036 16.5401 28.2036 17.3682 27.8879C17.7487 27.7413 18.0844 27.5045 18.353 27.2C18.6327 26.8842 18.8454 26.5121 18.9797 26.1061C19.2818 25.1589 19.2818 24.1327 18.9797 23.1854ZM47.5051 23.1854C47.3709 22.7794 47.1582 22.4073 46.8785 22.0915C46.6099 21.7983 46.2742 21.5615 45.8937 21.4149C45.4796 21.257 45.0432 21.1781 44.6067 21.1781H42.5476V28.1134H44.6067C45.0432 28.1247 45.4908 28.0345 45.8937 27.8766C46.263 27.73 46.6099 27.4932 46.8785 27.2C47.1582 26.8842 47.3709 26.5121 47.5051 26.1174C47.7961 25.1589 47.7961 24.1439 47.5051 23.1854ZM53.9958 22.272C53.8839 21.9788 53.7832 21.663 53.7049 21.3585C53.6601 21.539 53.6154 21.7081 53.5594 21.866C53.5034 22.0239 53.4587 22.1592 53.4139 22.2832L52.0822 25.8016H55.3387L53.9958 22.272ZM53.9958 22.272C53.8839 21.9788 53.7832 21.663 53.7049 21.3585C53.6601 21.539 53.6154 21.7081 53.5594 21.866C53.5034 22.0239 53.4587 22.1592 53.4139 22.2832L52.0822 25.8016H55.3387L53.9958 22.272ZM47.5051 23.1854C47.3709 22.7794 47.1582 22.4073 46.8785 22.0915C46.6099 21.7983 46.2742 21.5615 45.8937 21.4149C45.4796 21.257 45.0432 21.1781 44.6067 21.1781H42.5476V28.1134H44.6067C45.0432 28.1247 45.4908 28.0345 45.8937 27.8766C46.263 27.73 46.6099 27.4932 46.8785 27.2C47.1582 26.8842 47.3709 26.5121 47.5051 26.1174C47.7961 25.1589 47.7961 24.1439 47.5051 23.1854ZM18.9797 23.1854C18.8454 22.7794 18.6327 22.4073 18.353 22.0803C18.0844 21.7758 17.7487 21.539 17.3682 21.3924C16.5401 21.0766 15.6224 21.0766 14.7943 21.3924C14.4138 21.5502 14.0781 21.7871 13.8095 22.0803C13.5297 22.396 13.3171 22.7794 13.1828 23.1854C12.8918 24.1327 12.8918 25.1589 13.1828 26.1061C13.3171 26.5121 13.5297 26.8842 13.8095 27.2C14.0781 27.5045 14.425 27.7413 14.7943 27.8879C15.6224 28.2036 16.5401 28.2036 17.3682 27.8879C17.7487 27.7413 18.0844 27.5045 18.353 27.2C18.6327 26.8842 18.8454 26.5121 18.9797 26.1061C19.2818 25.1589 19.2818 24.1327 18.9797 23.1854ZM18.9797 23.1854C18.8454 22.7794 18.6327 22.4073 18.353 22.0803C18.0844 21.7758 17.7487 21.539 17.3682 21.3924C16.5401 21.0766 15.6224 21.0766 14.7943 21.3924C14.4138 21.5502 14.0781 21.7871 13.8095 22.0803C13.5297 22.396 13.3171 22.7794 13.1828 23.1854C12.8918 24.1327 12.8918 25.1589 13.1828 26.1061C13.3171 26.5121 13.5297 26.8842 13.8095 27.2C14.0781 27.5045 14.425 27.7413 14.7943 27.8879C15.6224 28.2036 16.5401 28.2036 17.3682 27.8879C17.7487 27.7413 18.0844 27.5045 18.353 27.2C18.6327 26.8842 18.8454 26.5121 18.9797 26.1061C19.2818 25.1589 19.2818 24.1327 18.9797 23.1854ZM47.5051 23.1854C47.3709 22.7794 47.1582 22.4073 46.8785 22.0915C46.6099 21.7983 46.2742 21.5615 45.8937 21.4149C45.4796 21.257 45.0432 21.1781 44.6067 21.1781H42.5476V28.1134H44.6067C45.0432 28.1247 45.4908 28.0345 45.8937 27.8766C46.263 27.73 46.6099 27.4932 46.8785 27.2C47.1582 26.8842 47.3709 26.5121 47.5051 26.1174C47.7961 25.1589 47.7961 24.1439 47.5051 23.1854ZM53.9958 22.272C53.8839 21.9788 53.7832 21.663 53.7049 21.3585C53.6601 21.539 53.6154 21.7081 53.5594 21.866C53.5034 22.0239 53.4587 22.1592 53.4139 22.2832L52.0822 25.8016H55.3387L53.9958 22.272ZM76.1202 23.1854C75.9859 22.7794 75.7732 22.4073 75.4935 22.0803C75.2249 21.7758 74.8892 21.539 74.5087 21.3924C73.6806 21.0766 72.7629 21.0766 71.9348 21.3924C71.5543 21.5502 71.2186 21.7871 70.95 22.0803C70.6702 22.396 70.4576 22.7681 70.3233 23.1854C70.0323 24.1327 70.0323 25.1589 70.3233 26.1061C70.4576 26.5121 70.6702 26.8842 70.95 27.2C71.2186 27.5045 71.5655 27.7413 71.9348 27.8879C72.7629 28.2036 73.6806 28.2036 74.5087 27.8879C74.8892 27.7413 75.2249 27.5045 75.4935 27.2C75.7732 26.8842 75.9859 26.5121 76.1202 26.1061C76.4111 25.1589 76.4111 24.1327 76.1202 23.1854ZM76.1202 23.1854C75.9859 22.7794 75.7732 22.4073 75.4935 22.0803C75.2249 21.7758 74.8892 21.539 74.5087 21.3924C73.6806 21.0766 72.7629 21.0766 71.9348 21.3924C71.5543 21.5502 71.2186 21.7871 70.95 22.0803C70.6702 22.396 70.4576 22.7681 70.3233 23.1854C70.0323 24.1327 70.0323 25.1589 70.3233 26.1061C70.4576 26.5121 70.6702 26.8842 70.95 27.2C71.2186 27.5045 71.5655 27.7413 71.9348 27.8879C72.7629 28.2036 73.6806 28.2036 74.5087 27.8879C74.8892 27.7413 75.2249 27.5045 75.4935 27.2C75.7732 26.8842 75.9859 26.5121 76.1202 26.1061C76.4111 25.1589 76.4111 24.1327 76.1202 23.1854ZM53.9958 22.272C53.8839 21.9788 53.7832 21.663 53.7049 21.3585C53.6601 21.539 53.6154 21.7081 53.5594 21.866C53.5034 22.0239 53.4587 22.1592 53.4139 22.2832L52.0822 25.8016H55.3387L53.9958 22.272ZM47.5051 23.1854C47.3709 22.7794 47.1582 22.4073 46.8785 22.0915C46.6099 21.7983 46.2742 21.5615 45.8937 21.4149C45.4796 21.257 45.0432 21.1781 44.6067 21.1781H42.5476V28.1134H44.6067C45.0432 28.1247 45.4908 28.0345 45.8937 27.8766C46.263 27.73 46.6099 27.4932 46.8785 27.2C47.1582 26.8842 47.3709 26.5121 47.5051 26.1174C47.7961 25.1589 47.7961 24.1439 47.5051 23.1854ZM18.9797 23.1854C18.8454 22.7794 18.6327 22.4073 18.353 22.0803C18.0844 21.7758 17.7487 21.539 17.3682 21.3924C16.5401 21.0766 15.6224 21.0766 14.7943 21.3924C14.4138 21.5502 14.0781 21.7871 13.8095 22.0803C13.5297 22.396 13.3171 22.7794 13.1828 23.1854C12.8918 24.1327 12.8918 25.1589 13.1828 26.1061C13.3171 26.5121 13.5297 26.8842 13.8095 27.2C14.0781 27.5045 14.425 27.7413 14.7943 27.8879C15.6224 28.2036 16.5401 28.2036 17.3682 27.8879C17.7487 27.7413 18.0844 27.5045 18.353 27.2C18.6327 26.8842 18.8454 26.5121 18.9797 26.1061C19.2818 25.1589 19.2818 24.1327 18.9797 23.1854ZM0.682617 15.8779V33.4249H91.2166V15.8779H0.682617ZM10.7096 21.1894H6.4571V24.2454H10.0941V25.3506H6.44591V29.2073H5.103V20.0842H10.7096V21.1894ZM20.2442 26.5234C20.0428 27.0759 19.7294 27.5721 19.3266 28.0006C18.9237 28.4179 18.4425 28.7449 17.9165 28.9592C16.7415 29.4215 15.4322 29.4215 14.2459 28.9592C13.7088 28.7449 13.2276 28.4179 12.8359 28.0006C12.433 27.5721 12.1197 27.0759 11.9182 26.5234C11.4818 25.3167 11.4818 23.9861 11.9182 22.7794C12.1197 22.2269 12.433 21.7307 12.8359 21.3021C13.2388 20.8849 13.72 20.5579 14.2459 20.3436C15.421 19.8812 16.7303 19.8812 17.9165 20.3436C18.4537 20.5579 18.9349 20.8849 19.3266 21.3021C19.7294 21.7307 20.0428 22.2269 20.2442 22.7794C20.6807 23.9861 20.6807 25.3167 20.2442 26.5234ZM29.4207 25.5987C29.4207 26.1061 29.3424 26.6023 29.1633 27.0759C29.0067 27.5157 28.7605 27.9104 28.4359 28.2487C28.1114 28.5871 27.7197 28.8464 27.2833 29.0269C26.3097 29.399 25.2242 29.399 24.2506 29.0269C23.3777 28.6773 22.695 27.9668 22.3817 27.0759C22.2138 26.6023 22.1243 26.1061 22.1243 25.5987V20.0842H23.4672V25.5987C23.4672 25.9482 23.512 26.2866 23.6239 26.6136C23.7134 26.9068 23.8701 27.1774 24.0715 27.4142C24.2729 27.6398 24.5191 27.8202 24.7989 27.933C25.4256 28.1811 26.1194 28.1811 26.7349 27.933C27.0147 27.8202 27.2609 27.6398 27.4623 27.4142C27.6638 27.1887 27.8204 26.9181 27.9212 26.6249C28.0331 26.2978 28.0778 25.9482 28.0778 25.6099V20.0842H29.4207V25.5987ZM38.9665 29.2073H38.2839C38.1944 29.2073 38.1048 29.196 38.0153 29.1509C37.937 29.1058 37.8586 29.0381 37.8027 28.9705L32.6996 22.3171C32.7108 22.4298 32.7108 22.5426 32.722 22.6554C32.7332 22.7681 32.7332 22.8696 32.7332 22.9711V29.2073H31.5582V20.0842H32.2408C32.3304 20.0842 32.4199 20.0955 32.5094 20.1293C32.5877 20.1744 32.6549 20.2421 32.6996 20.321L37.8251 26.9857C37.8139 26.8617 37.8027 26.7376 37.8027 26.6249C37.8027 26.5121 37.7915 26.3993 37.7915 26.2978V20.0842H38.9665V29.2073ZM48.7697 26.5121C48.3557 27.5947 47.5163 28.463 46.4308 28.8803C45.8489 29.1058 45.2222 29.2186 44.5955 29.2073H41.1935V20.0842H44.5955C45.2222 20.073 45.8489 20.1857 46.4308 20.4113C47.5051 20.8285 48.3557 21.6968 48.7697 22.7794C49.2062 23.9861 49.2062 25.3055 48.7697 26.5121ZM56.9614 29.2073C56.8607 29.2073 56.76 29.1847 56.6705 29.1171C56.5921 29.0607 56.5362 28.9817 56.5026 28.8915L55.6969 26.7715H51.7017L50.9072 28.8915C50.8736 28.9817 50.8176 29.0494 50.7393 29.1058C50.661 29.1735 50.5491 29.2073 50.4483 29.2073H49.4188L53.0222 20.0842H54.3875L57.991 29.196H56.9614V29.2073ZM64.4033 21.2119H61.5273V29.2073H60.1956V21.2119H57.3083V20.0842H64.4033V21.2119ZM67.0556 29.2073H65.7015V20.0842H67.0556V29.2073ZM77.3847 26.5234C77.1833 27.0759 76.8699 27.5721 76.4671 28.0006C76.0642 28.4179 75.583 28.7449 75.057 28.9592C73.882 29.4215 72.5727 29.4215 71.3864 28.9592C70.8493 28.7449 70.3681 28.4179 69.9652 28.0006C69.5623 27.5721 69.249 27.0759 69.0475 26.5234C68.6111 25.3167 68.6111 23.9861 69.0475 22.7794C69.249 22.2269 69.5623 21.7307 69.9652 21.3021C70.3681 20.8849 70.8493 20.5579 71.3864 20.3436C72.5615 19.8812 73.8708 19.8812 75.057 20.3436C75.5942 20.5579 76.0754 20.8849 76.4671 21.3021C76.8699 21.7307 77.1833 22.2269 77.3847 22.7794C77.8324 23.9861 77.8324 25.3167 77.3847 26.5234ZM86.8074 29.2073H86.1248C86.0353 29.2073 85.9457 29.196 85.8562 29.1509C85.7779 29.1058 85.6995 29.0381 85.6436 28.9705L80.5294 22.3171C80.5405 22.4298 80.5517 22.5426 80.5517 22.6554C80.5517 22.7681 80.5629 22.8696 80.5629 22.9711V29.2073H79.3879V20.0842H80.0817C80.1712 20.0842 80.2608 20.0955 80.3503 20.1293C80.4286 20.1744 80.4958 20.2421 80.5406 20.321L85.666 26.9857C85.6548 26.8617 85.6436 26.7376 85.6436 26.6249C85.6436 26.5121 85.6324 26.3993 85.6324 26.2978V20.0842H86.8074V29.2073ZM75.4935 22.0915C75.2249 21.787 74.8892 21.5502 74.5087 21.4036C73.6806 21.0879 72.7629 21.0879 71.9348 21.4036C71.5543 21.5615 71.2186 21.7983 70.95 22.0915C70.6702 22.4073 70.4576 22.7794 70.3233 23.1967C70.0323 24.1439 70.0323 25.1701 70.3233 26.1174C70.4576 26.5234 70.6702 26.8955 70.95 27.2113C71.2186 27.5157 71.5655 27.7526 71.9348 27.8992C72.7629 28.2149 73.6806 28.2149 74.5087 27.8992C74.8892 27.7526 75.2249 27.5157 75.4935 27.2113C75.7732 26.8955 75.9859 26.5234 76.1202 26.1174C76.4223 25.1701 76.4223 24.1439 76.1202 23.1967C75.9859 22.7794 75.7732 22.4073 75.4935 22.0915ZM53.7049 21.3585C53.6601 21.539 53.6154 21.7081 53.5594 21.866C53.5034 22.0239 53.4587 22.1592 53.4139 22.2832L52.0822 25.8016H55.3387L53.9958 22.2607C53.8839 21.9675 53.7832 21.663 53.7049 21.3585ZM46.8785 22.1028C46.6099 21.7983 46.2742 21.5615 45.8937 21.4149C45.4796 21.257 45.0432 21.1781 44.6067 21.1781H42.5476V28.1134H44.6067C45.0432 28.1247 45.4908 28.0345 45.8937 27.8766C46.263 27.73 46.6099 27.4932 46.8785 27.2C47.1582 26.8842 47.3709 26.5121 47.5051 26.1174C47.8073 25.1701 47.8073 24.1439 47.5051 23.1967C47.3709 22.7907 47.1582 22.4186 46.8785 22.1028ZM18.353 22.0915C18.0844 21.787 17.7487 21.5502 17.3682 21.4036C16.5401 21.0879 15.6224 21.0879 14.7943 21.4036C14.4138 21.5615 14.0781 21.7983 13.8095 22.0915C13.5297 22.4073 13.3171 22.7907 13.1828 23.1967C12.8918 24.1439 12.8918 25.1701 13.1828 26.1174C13.3171 26.5234 13.5297 26.8955 13.8095 27.2113C14.0781 27.5157 14.425 27.7526 14.7943 27.8992C15.6224 28.2149 16.5401 28.2149 17.3682 27.8992C17.7487 27.7526 18.0844 27.5157 18.353 27.2113C18.6327 26.8955 18.8454 26.5234 18.9797 26.1174C19.2706 25.1701 19.2706 24.1439 18.9797 23.1967C18.8454 22.7794 18.6327 22.4073 18.353 22.0915ZM18.9797 23.1854C18.8454 22.7794 18.6327 22.4073 18.353 22.0803C18.0844 21.7758 17.7487 21.539 17.3682 21.3924C16.5401 21.0766 15.6224 21.0766 14.7943 21.3924C14.4138 21.5502 14.0781 21.7871 13.8095 22.0803C13.5297 22.396 13.3171 22.7794 13.1828 23.1854C12.8918 24.1327 12.8918 25.1589 13.1828 26.1061C13.3171 26.5121 13.5297 26.8842 13.8095 27.2C14.0781 27.5045 14.425 27.7413 14.7943 27.8879C15.6224 28.2036 16.5401 28.2036 17.3682 27.8879C17.7487 27.7413 18.0844 27.5045 18.353 27.2C18.6327 26.8842 18.8454 26.5121 18.9797 26.1061C19.2818 25.1589 19.2818 24.1439 18.9797 23.1854ZM47.5051 23.1854C47.3709 22.7794 47.1582 22.4073 46.8785 22.0915C46.6099 21.787 46.2742 21.5615 45.8937 21.4036C45.4796 21.2458 45.0432 21.1668 44.6067 21.1668H42.5476V28.1021H44.6067C45.0432 28.1134 45.4908 28.0232 45.8937 27.8653C46.263 27.7187 46.6099 27.4819 46.8785 27.1887C47.1582 26.873 47.3709 26.5008 47.5051 26.1061C47.7961 25.1589 47.7961 24.1439 47.5051 23.1854ZM53.9958 22.272C53.8839 21.9788 53.7832 21.663 53.7049 21.3585C53.6601 21.539 53.6154 21.7081 53.5594 21.866C53.5034 22.0239 53.4587 22.1592 53.4139 22.2832L52.0822 25.8016H55.3387L53.9958 22.272ZM53.9958 22.272C53.8839 21.9788 53.7832 21.663 53.7049 21.3585C53.6601 21.539 53.6154 21.7081 53.5594 21.866C53.5034 22.0239 53.4587 22.1592 53.4139 22.2832L52.0822 25.8016H55.3387L53.9958 22.272ZM47.5051 23.1854C47.3709 22.7794 47.1582 22.4073 46.8785 22.0915C46.6099 21.787 46.2742 21.5615 45.8937 21.4036C45.4796 21.2458 45.0432 21.1668 44.6067 21.1668H42.5476V28.1021H44.6067C45.0432 28.1134 45.4908 28.0232 45.8937 27.8653C46.263 27.7187 46.6099 27.4819 46.8785 27.1887C47.1582 26.873 47.3709 26.5008 47.5051 26.1061C47.7961 25.1589 47.7961 24.1439 47.5051 23.1854ZM18.9797 23.1854C18.8454 22.7794 18.6327 22.4073 18.353 22.0803C18.0844 21.7758 17.7487 21.539 17.3682 21.3924C16.5401 21.0766 15.6224 21.0766 14.7943 21.3924C14.4138 21.5502 14.0781 21.7871 13.8095 22.0803C13.5297 22.396 13.3171 22.7794 13.1828 23.1854C12.8918 24.1327 12.8918 25.1589 13.1828 26.1061C13.3171 26.5121 13.5297 26.8842 13.8095 27.2C14.0781 27.5045 14.425 27.7413 14.7943 27.8879C15.6224 28.2036 16.5401 28.2036 17.3682 27.8879C17.7487 27.7413 18.0844 27.5045 18.353 27.2C18.6327 26.8842 18.8454 26.5121 18.9797 26.1061C19.2818 25.1589 19.2818 24.1439 18.9797 23.1854ZM18.9797 23.1854C18.8454 22.7794 18.6327 22.4073 18.353 22.0803C18.0844 21.7758 17.7487 21.539 17.3682 21.3924C16.5401 21.0766 15.6224 21.0766 14.7943 21.3924C14.4138 21.5502 14.0781 21.7871 13.8095 22.0803C13.5297 22.396 13.3171 22.7794 13.1828 23.1854C12.8918 24.1327 12.8918 25.1589 13.1828 26.1061C13.3171 26.5121 13.5297 26.8842 13.8095 27.2C14.0781 27.5045 14.425 27.7413 14.7943 27.8879C15.6224 28.2036 16.5401 28.2036 17.3682 27.8879C17.7487 27.7413 18.0844 27.5045 18.353 27.2C18.6327 26.8842 18.8454 26.5121 18.9797 26.1061C19.2818 25.1589 19.2818 24.1439 18.9797 23.1854ZM47.5051 23.1854C47.3709 22.7794 47.1582 22.4073 46.8785 22.0915C46.6099 21.787 46.2742 21.5615 45.8937 21.4036C45.4796 21.2458 45.0432 21.1668 44.6067 21.1668H42.5476V28.1021H44.6067C45.0432 28.1134 45.4908 28.0232 45.8937 27.8653C46.263 27.7187 46.6099 27.4819 46.8785 27.1887C47.1582 26.873 47.3709 26.5008 47.5051 26.1061C47.7961 25.1589 47.7961 24.1439 47.5051 23.1854ZM53.9958 22.272C53.8839 21.9788 53.7832 21.663 53.7049 21.3585C53.6601 21.539 53.6154 21.7081 53.5594 21.866C53.5034 22.0239 53.4587 22.1592 53.4139 22.2832L52.0822 25.8016H55.3387L53.9958 22.272ZM53.9958 22.272C53.8839 21.9788 53.7832 21.663 53.7049 21.3585C53.6601 21.539 53.6154 21.7081 53.5594 21.866C53.5034 22.0239 53.4587 22.1592 53.4139 22.2832L52.0822 25.8016H55.3387L53.9958 22.272ZM47.5051 23.1854C47.3709 22.7794 47.1582 22.4073 46.8785 22.0915C46.6099 21.787 46.2742 21.5615 45.8937 21.4036C45.4796 21.2458 45.0432 21.1668 44.6067 21.1668H42.5476V28.1021H44.6067C45.0432 28.1134 45.4908 28.0232 45.8937 27.8653C46.263 27.7187 46.6099 27.4819 46.8785 27.1887C47.1582 26.873 47.3709 26.5008 47.5051 26.1061C47.7961 25.1589 47.7961 24.1439 47.5051 23.1854ZM18.9797 23.1854C18.8454 22.7794 18.6327 22.4073 18.353 22.0803C18.0844 21.7758 17.7487 21.539 17.3682 21.3924C16.5401 21.0766 15.6224 21.0766 14.7943 21.3924C14.4138 21.5502 14.0781 21.7871 13.8095 22.0803C13.5297 22.396 13.3171 22.7794 13.1828 23.1854C12.8918 24.1327 12.8918 25.1589 13.1828 26.1061C13.3171 26.5121 13.5297 26.8842 13.8095 27.2C14.0781 27.5045 14.425 27.7413 14.7943 27.8879C15.6224 28.2036 16.5401 28.2036 17.3682 27.8879C17.7487 27.7413 18.0844 27.5045 18.353 27.2C18.6327 26.8842 18.8454 26.5121 18.9797 26.1061C19.2818 25.1589 19.2818 24.1439 18.9797 23.1854ZM18.9797 23.1854C18.8454 22.7794 18.6327 22.4073 18.353 22.0803C18.0844 21.7758 17.7487 21.539 17.3682 21.3924C16.5401 21.0766 15.6224 21.0766 14.7943 21.3924C14.4138 21.5502 14.0781 21.7871 13.8095 22.0803C13.5297 22.396 13.3171 22.7794 13.1828 23.1854C12.8918 24.1327 12.8918 25.1589 13.1828 26.1061C13.3171 26.5121 13.5297 26.8842 13.8095 27.2C14.0781 27.5045 14.425 27.7413 14.7943 27.8879C15.6224 28.2036 16.5401 28.2036 17.3682 27.8879C17.7487 27.7413 18.0844 27.5045 18.353 27.2C18.6327 26.8842 18.8454 26.5121 18.9797 26.1061C19.2818 25.1589 19.2818 24.1439 18.9797 23.1854ZM18.9797 23.1854C18.8454 22.7794 18.6327 22.4073 18.353 22.0803C18.0844 21.7758 17.7487 21.539 17.3682 21.3924C16.5401 21.0766 15.6224 21.0766 14.7943 21.3924C14.4138 21.5502 14.0781 21.7871 13.8095 22.0803C13.5297 22.396 13.3171 22.7794 13.1828 23.1854C12.8918 24.1327 12.8918 25.1589 13.1828 26.1061C13.3171 26.5121 13.5297 26.8842 13.8095 27.2C14.0781 27.5045 14.425 27.7413 14.7943 27.8879C15.6224 28.2036 16.5401 28.2036 17.3682 27.8879C17.7487 27.7413 18.0844 27.5045 18.353 27.2C18.6327 26.8842 18.8454 26.5121 18.9797 26.1061C19.2818 25.1589 19.2818 24.1439 18.9797 23.1854ZM18.9797 23.1854C18.8454 22.7794 18.6327 22.4073 18.353 22.0803C18.0844 21.7758 17.7487 21.539 17.3682 21.3924C16.5401 21.0766 15.6224 21.0766 14.7943 21.3924C14.4138 21.5502 14.0781 21.7871 13.8095 22.0803C13.5297 22.396 13.3171 22.7794 13.1828 23.1854C12.8918 24.1327 12.8918 25.1589 13.1828 26.1061C13.3171 26.5121 13.5297 26.8842 13.8095 27.2C14.0781 27.5045 14.425 27.7413 14.7943 27.8879C15.6224 28.2036 16.5401 28.2036 17.3682 27.8879C17.7487 27.7413 18.0844 27.5045 18.353 27.2C18.6327 26.8842 18.8454 26.5121 18.9797 26.1061C19.2818 25.1589 19.2818 24.1439 18.9797 23.1854ZM18.9797 23.1854C18.8454 22.7794 18.6327 22.4073 18.353 22.0803C18.0844 21.7758 17.7487 21.539 17.3682 21.3924C16.5401 21.0766 15.6224 21.0766 14.7943 21.3924C14.4138 21.5502 14.0781 21.7871 13.8095 22.0803C13.5297 22.396 13.3171 22.7794 13.1828 23.1854C12.8918 24.1327 12.8918 25.1589 13.1828 26.1061C13.3171 26.5121 13.5297 26.8842 13.8095 27.2C14.0781 27.5045 14.425 27.7413 14.7943 27.8879C15.6224 28.2036 16.5401 28.2036 17.3682 27.8879C17.7487 27.7413 18.0844 27.5045 18.353 27.2C18.6327 26.8842 18.8454 26.5121 18.9797 26.1061C19.2818 25.1589 19.2818 24.1439 18.9797 23.1854Z" fill="white"/>
<path d="M4.61061 0.834556C5.25968 0.823279 5.91994 0.902218 6.55782 1.06009C7.03902 1.17286 7.48666 1.38713 7.88953 1.6916C8.22525 1.95097 8.49383 2.30056 8.6617 2.69525C8.82956 3.1125 8.91909 3.57485 8.90789 4.02593C8.90789 4.30786 8.86313 4.60106 8.7736 4.8717C8.68408 5.14235 8.5386 5.40172 8.35954 5.62726C8.15811 5.87535 7.9231 6.08961 7.66571 6.25877C7.35237 6.46175 7.02783 6.61963 6.66972 6.72112C8.42669 7.07071 9.29957 7.99542 9.29957 9.49525C9.31077 9.98016 9.21005 10.4651 9.00861 10.9161C8.81837 11.3447 8.5386 11.7168 8.18049 12.0213C7.78881 12.3483 7.32998 12.5964 6.83759 12.743C6.24447 12.9234 5.64017 13.0024 5.02467 12.9911H0.682617V0.834556H4.61061ZM2.47315 2.25545V6.22494H4.53227C5.41635 6.22494 6.06542 6.04451 6.49067 5.68364C6.91592 5.32278 7.12855 4.83787 7.12855 4.22892C7.12855 3.54102 6.92711 3.03356 6.51305 2.71781C6.09899 2.40205 5.48349 2.25545 4.6218 2.25545H2.47315ZM4.9911 11.5589C5.38278 11.5702 5.77446 11.5138 6.15494 11.4011C6.44591 11.3108 6.71449 11.1642 6.9383 10.9613C7.13974 10.7808 7.29641 10.5553 7.38594 10.2959C7.48666 10.0253 7.53142 9.74335 7.53142 9.45014C7.53142 8.85247 7.32998 8.37883 6.90473 8.02925C6.49067 7.67966 5.85279 7.51051 4.9911 7.51051H2.47315V11.5589H4.9911Z" fill="white"/>
<path d="M18.1291 11.7618C17.9277 11.9986 17.6927 12.2016 17.4353 12.3708C17.1779 12.5399 16.8869 12.6865 16.596 12.788C16.2938 12.9008 15.9917 12.9797 15.6783 13.0248C15.365 13.07 15.0516 13.1038 14.7383 13.1038C14.1788 13.1038 13.6304 13.0023 13.1044 12.7993C12.612 12.6076 12.1644 12.3031 11.8063 11.9197C11.4258 11.5025 11.1348 11.0176 10.9446 10.4875C10.732 9.85603 10.6313 9.17941 10.6424 8.51407C10.6424 7.95022 10.732 7.3751 10.9222 6.84508C11.1013 6.3489 11.3698 5.88654 11.7168 5.49185C12.0749 5.10843 12.5001 4.79268 12.9813 4.58969C13.5073 4.36415 14.0892 4.25138 14.66 4.26266C15.1524 4.25138 15.6336 4.3416 16.0924 4.52203C16.5176 4.69118 16.9093 4.93928 17.2339 5.26631C17.5696 5.61589 17.8158 6.02186 17.9836 6.47294C18.1739 7.00296 18.2634 7.55553 18.2522 8.11938C18.2522 8.37875 18.2298 8.5479 18.1627 8.63812C18.0844 8.72833 17.9724 8.78472 17.8494 8.77344H12.2651C12.2763 9.22452 12.3435 9.6756 12.4777 10.1154C12.5896 10.465 12.7687 10.792 13.0149 11.0627C13.2387 11.3108 13.5185 11.5025 13.8206 11.6265C14.1564 11.7506 14.5145 11.8182 14.8726 11.8069C15.1971 11.8182 15.5105 11.7731 15.8126 11.6829C16.0476 11.6152 16.2826 11.5137 16.4953 11.4122C16.6855 11.3108 16.8534 11.2205 16.9877 11.1416C17.0884 11.0627 17.2115 11.0176 17.3346 11.0176C17.4577 11.0063 17.5696 11.0739 17.6479 11.1754L18.1291 11.7618ZM16.775 7.73596C16.775 7.43148 16.7303 7.12701 16.6407 6.8338C16.5512 6.56316 16.4169 6.32634 16.2379 6.11208C16.0588 5.90909 15.835 5.75122 15.5776 5.63845C15.2978 5.52568 14.9845 5.45802 14.6823 5.46929C13.9885 5.46929 13.4513 5.67228 13.0597 6.06697C12.668 6.47294 12.4106 7.02551 12.3099 7.73596H16.775Z" fill="white"/>
<path d="M21.5649 6.04463C21.7999 5.53717 22.1356 5.08609 22.5609 4.71395C22.9526 4.38692 23.4449 4.21777 23.9485 4.22904C24.1276 4.22904 24.3066 4.2516 24.4745 4.29671C24.6312 4.33054 24.7767 4.3982 24.911 4.48841L24.799 5.72888C24.7767 5.8642 24.6536 5.9657 24.5193 5.95442C24.3962 5.95442 24.2843 5.93186 24.1724 5.90931C24.0045 5.87548 23.8366 5.8642 23.6688 5.8642C23.4338 5.8642 23.1988 5.89803 22.9749 5.97697C22.7735 6.05591 22.5944 6.16868 22.4378 6.31528C22.2699 6.47316 22.1244 6.66487 22.0125 6.86785C21.8782 7.10467 21.7663 7.35276 21.6656 7.61213V12.9912H20.0317V4.3982H20.9718C21.1061 4.38692 21.2292 4.42075 21.3411 4.49969C21.4194 4.60118 21.4642 4.71395 21.4754 4.838L21.5649 6.04463Z" fill="white"/>
<path d="M28.8388 13.1261C28.1561 13.1261 27.619 12.9344 27.2497 12.5397C26.8804 12.145 26.6901 11.5925 26.6901 10.8707V5.72846H25.6941C25.6046 5.72846 25.5151 5.69463 25.4591 5.63824C25.392 5.57058 25.3584 5.46909 25.3584 5.3676V4.70226L26.7461 4.51055L27.1154 1.95068C27.1377 1.86047 27.1825 1.78153 27.2497 1.72514C27.3168 1.66876 27.4063 1.63493 27.4959 1.6462H28.324V4.5331H30.7412V5.73974H28.324V10.7693C28.324 11.1076 28.4023 11.3557 28.5702 11.5248C28.738 11.694 28.9619 11.7842 29.2081 11.7729C29.3423 11.7729 29.4766 11.7503 29.5997 11.7165C29.7004 11.6827 29.79 11.6376 29.8795 11.5812C29.9578 11.5361 30.025 11.491 30.0809 11.4459C30.1257 11.412 30.1705 11.3895 30.2264 11.3895C30.2712 11.3895 30.3159 11.4008 30.3607 11.4233C30.3943 11.4571 30.4279 11.5023 30.4614 11.5474L30.9538 12.3368C30.6741 12.5961 30.3495 12.7878 30.0026 12.9119C29.6109 13.0472 29.2304 13.1261 28.8388 13.1261Z" fill="white"/>
<path d="M39.1902 11.7618C38.9888 11.9986 38.7538 12.2016 38.4964 12.3708C38.239 12.5399 37.948 12.6865 37.6571 12.788C37.3549 12.9008 37.0527 12.9797 36.7394 13.0249C36.4261 13.07 36.1127 13.1038 35.7994 13.1038C35.2398 13.1038 34.6915 13.0023 34.1655 12.7993C33.6731 12.6076 33.2255 12.3031 32.8674 11.9197C32.4869 11.5025 32.1959 11.0176 32.0169 10.4875C31.8042 9.85603 31.7035 9.17941 31.7147 8.51407C31.7147 7.95023 31.8042 7.3751 31.9945 6.84508C32.1735 6.3489 32.4421 5.88654 32.789 5.49185C33.1471 5.10843 33.5724 4.79268 34.0536 4.58969C34.5796 4.36416 35.1615 4.25139 35.7322 4.26266C36.2246 4.25139 36.7058 4.3416 37.1647 4.51076C37.5899 4.67991 37.9816 4.928 38.3061 5.25503C38.6418 5.60462 38.8992 6.01059 39.0559 6.46167C39.2462 6.99168 39.3357 7.54426 39.3245 8.09683C39.3245 8.3562 39.3021 8.52535 39.235 8.61557C39.1678 8.71706 39.0447 8.76217 38.9216 8.75089H33.3262C33.3374 9.20197 33.4157 9.65304 33.55 10.0928C33.6619 10.4424 33.841 10.7695 34.0872 11.0401C34.311 11.2882 34.5908 11.4799 34.8929 11.604C35.2286 11.728 35.5867 11.7957 35.9449 11.7844C36.2694 11.7957 36.5827 11.7506 36.8849 11.6603C37.1199 11.5927 37.3549 11.4912 37.5675 11.3897C37.7354 11.3108 37.8921 11.2205 38.0599 11.119C38.1606 11.0401 38.2837 11.0063 38.4068 10.995C38.5299 10.9837 38.6418 11.0514 38.7202 11.1529L39.1902 11.7618ZM37.8473 7.73596C37.8473 7.43148 37.8025 7.12701 37.713 6.83381C37.6235 6.56316 37.4892 6.32634 37.3101 6.11208C37.1311 5.9091 36.9073 5.75122 36.6499 5.63845C36.3701 5.52568 36.0679 5.45802 35.7546 5.4693C35.072 5.4693 34.5236 5.67228 34.1319 6.06697C33.7403 6.47294 33.4829 7.02551 33.3821 7.73596H37.8473Z" fill="white"/>
<path d="M42.7603 0.496094V12.9797H41.1152V0.496094H42.7603Z" fill="white"/>
<path d="M50.124 5.87553C50.0905 5.94319 50.0457 5.9883 49.9786 6.03341C49.9226 6.06724 49.8555 6.07852 49.7883 6.07852C49.6876 6.07852 49.5757 6.04468 49.4862 5.9883C49.3743 5.92064 49.2512 5.86425 49.0945 5.78532C48.9154 5.70638 48.7364 5.63871 48.5573 5.58233C48.3223 5.51467 48.0649 5.48084 47.8187 5.49211C47.6061 5.49211 47.3823 5.51467 47.1808 5.58233C47.0018 5.63871 46.8339 5.71765 46.6884 5.83042C46.5542 5.93192 46.4534 6.05596 46.3751 6.20256C46.2968 6.34916 46.2632 6.50704 46.2632 6.66492C46.2632 6.85663 46.3303 7.04833 46.4646 7.19493C46.6101 7.34153 46.778 7.46558 46.957 7.5558C47.1808 7.66857 47.4158 7.75878 47.6509 7.82644C47.9082 7.90538 48.1768 7.9956 48.4454 8.08581C48.714 8.17603 48.9826 8.27752 49.24 8.39029C49.4862 8.50306 49.7212 8.64966 49.9338 8.81881C50.1352 8.98797 50.3031 9.20223 50.4262 9.43905C50.5605 9.72097 50.6276 10.0254 50.6164 10.3299C50.6164 10.7133 50.5493 11.0855 50.4038 11.4463C50.2583 11.7847 50.0457 12.0891 49.7771 12.3259C49.475 12.5853 49.1281 12.7883 48.7476 12.9123C48.2999 13.0589 47.8187 13.1266 47.3487 13.1266C46.7892 13.1266 46.2408 13.0364 45.726 12.8334C45.2672 12.6643 44.842 12.4049 44.4727 12.0779L44.8643 11.4463C44.9427 11.2772 45.1217 11.187 45.3008 11.1983C45.4239 11.1983 45.5358 11.2434 45.6253 11.311C45.7372 11.39 45.8715 11.4802 46.0282 11.5704C46.2072 11.6719 46.3975 11.7621 46.5989 11.8185C46.8675 11.8974 47.1585 11.9425 47.4382 11.9313C47.6844 11.9313 47.9306 11.8974 48.1656 11.8298C48.3559 11.7734 48.5349 11.6719 48.6804 11.5478C48.8147 11.4351 48.9154 11.2885 48.9826 11.1306C49.0497 10.9727 49.0833 10.8036 49.0833 10.6344C49.0945 10.4314 49.0273 10.2284 48.893 10.0706C48.7588 9.91268 48.5909 9.77736 48.4006 9.68714C48.1768 9.57437 47.9418 9.48415 47.6956 9.40522C47.4382 9.32628 47.1697 9.24734 46.8899 9.14585C46.6213 9.05563 46.3415 8.95414 46.0841 8.83009C45.8267 8.71732 45.5917 8.55944 45.3791 8.37901C45.1665 8.19858 44.9986 7.97304 44.8755 7.72495C44.7412 7.43175 44.6741 7.10472 44.6853 6.77769C44.6853 6.45065 44.7524 6.12362 44.8867 5.81915C45.021 5.51467 45.2336 5.23274 45.4798 5.01848C45.7596 4.77039 46.0953 4.58996 46.4422 4.46591C46.8675 4.31931 47.3039 4.25165 47.7516 4.26293C48.2775 4.25165 48.7923 4.34187 49.2847 4.53357C49.7212 4.70273 50.1128 4.95082 50.4598 5.27785L50.124 5.87553Z" fill="white"/>
<path d="M52.3843 12.9799V4.39811H53.3691C53.5705 4.37555 53.7608 4.52215 53.7943 4.72514L53.9062 5.54835C54.1972 5.18749 54.5553 4.87174 54.947 4.62364C55.3499 4.37555 55.8199 4.2515 56.2899 4.26278C56.8606 4.26278 57.3194 4.42066 57.6664 4.73641C58.0357 5.07472 58.3042 5.51452 58.4385 6.01071C58.5504 5.71751 58.7183 5.45814 58.9197 5.22132C59.11 5.00706 59.3338 4.82663 59.5688 4.68003C59.8038 4.54471 60.0724 4.43194 60.341 4.36427C60.6096 4.29661 60.8893 4.26278 61.1691 4.26278C61.5832 4.2515 61.9972 4.33044 62.3777 4.47704C62.7246 4.61237 63.0268 4.82663 63.2842 5.10855C63.5416 5.40175 63.7318 5.75134 63.8437 6.13476C63.978 6.58583 64.0451 7.04819 64.034 7.52182V12.9911H62.4001V7.51054C62.4001 6.86776 62.2658 6.38285 61.986 6.05582C61.7063 5.72878 61.3034 5.55963 60.7774 5.55963C60.5424 5.55963 60.3186 5.60474 60.106 5.68368C59.8933 5.76262 59.7031 5.88666 59.5464 6.05582C59.3786 6.22497 59.2555 6.43923 59.1659 6.66477C59.0652 6.93542 59.0205 7.21734 59.0316 7.51054V12.9799H57.3866V7.51054C57.3866 6.8452 57.2523 6.36029 56.9949 6.03326C56.7263 5.71751 56.3458 5.55963 55.8423 5.55963C55.4953 5.55963 55.1596 5.64985 54.8575 5.84155C54.5329 6.04454 54.2531 6.30391 54.0293 6.60839V12.9911H52.3843V12.9799Z" fill="white"/>
<path d="M66.0373 5.59348C66.9326 4.7026 68.1524 4.20642 69.417 4.22897C69.8646 4.2177 70.301 4.30791 70.7039 4.46579C71.062 4.62367 71.3866 4.84921 71.6551 5.14241C71.9237 5.44688 72.114 5.79647 72.2371 6.16861C72.3714 6.59713 72.4385 7.04821 72.4385 7.49929V12.9799H71.7111C71.588 12.9912 71.4537 12.9573 71.3418 12.9009C71.2411 12.822 71.1739 12.7205 71.1404 12.5965L70.9613 11.8409C70.7599 12.0326 70.5361 12.2131 70.3122 12.3822C70.0996 12.5401 69.8758 12.6641 69.6408 12.7769C69.4058 12.8897 69.1596 12.9686 68.9022 13.025C68.6112 13.0814 68.3203 13.1152 68.0293 13.1152C67.7048 13.1152 67.3914 13.0701 67.0893 12.9799C66.8095 12.8897 66.5409 12.7431 66.3171 12.5514C66.0933 12.3484 65.9254 12.1116 65.8135 11.8296C65.6792 11.5139 65.6121 11.1643 65.6233 10.826C65.6233 10.4764 65.724 10.1494 65.8918 9.84489C66.1157 9.49531 66.4178 9.20211 66.7759 8.99912C67.2795 8.7172 67.8279 8.51421 68.3874 8.39017C69.1932 8.22101 70.0101 8.1308 70.8382 8.11952V7.48801C70.8382 6.84523 70.7039 6.36032 70.4241 6.03328C70.1444 5.70625 69.7415 5.54838 69.2155 5.54838C68.9134 5.5371 68.6 5.58221 68.3091 5.6837C68.0853 5.76264 67.8838 5.86413 67.6824 5.98818C67.5033 6.10095 67.3579 6.20244 67.2236 6.29265C67.1005 6.38287 66.9662 6.42798 66.8207 6.42798C66.72 6.42798 66.6193 6.39415 66.5297 6.33776C66.4514 6.28138 66.3843 6.20244 66.3283 6.11222L66.0373 5.59348ZM70.8382 9.16828C70.2675 9.17955 69.7079 9.23594 69.1372 9.32615C68.7455 9.38254 68.365 9.49531 68.0069 9.65318C67.7607 9.75468 67.5369 9.92383 67.3802 10.1268C67.2571 10.3072 67.19 10.5215 67.19 10.7358C67.19 10.9275 67.2236 11.1192 67.2907 11.2883C67.3579 11.4349 67.4474 11.5703 67.5705 11.6718C67.6936 11.7733 67.8391 11.8409 67.9957 11.886C68.1636 11.9311 68.3426 11.9537 68.5217 11.9537C68.7567 11.9537 68.9917 11.9311 69.2155 11.8747C69.417 11.8296 69.6184 11.7507 69.8086 11.6605C69.9989 11.5703 70.1779 11.4575 70.3346 11.3222C70.5137 11.1756 70.6815 11.029 70.827 10.8598L70.8382 9.16828Z" fill="white"/>
<path d="M76.1874 5.58223C76.3665 5.39052 76.5567 5.21009 76.7693 5.04093C76.9708 4.88305 77.1834 4.73645 77.4072 4.62368C77.6422 4.51092 77.8884 4.4207 78.1346 4.35304C78.4032 4.28538 78.6942 4.25155 78.9739 4.25155C79.3992 4.24027 79.8244 4.31921 80.2161 4.48836C80.563 4.63496 80.8652 4.8605 81.1114 5.1537C81.3576 5.45818 81.5478 5.80776 81.6597 6.1799C81.7828 6.60843 81.85 7.05951 81.85 7.51058V12.9799H80.2049V7.51058C80.2049 6.89035 80.0706 6.41672 79.7797 6.07841C79.4999 5.7401 79.0746 5.57095 78.4927 5.57095C78.0787 5.57095 77.6758 5.67244 77.3177 5.86415C76.9372 6.07841 76.5903 6.34906 76.2993 6.67609V12.9799H74.6431V4.39815H75.6279C75.8293 4.37559 76.0195 4.52219 76.0531 4.72518L76.1874 5.58223Z" fill="white"/>
<path d="M85.5766 5.58223C85.7557 5.39052 85.9459 5.21009 86.1585 5.04093C86.36 4.88305 86.5726 4.73645 86.7964 4.62368C87.0314 4.51092 87.2776 4.4207 87.5238 4.35304C87.7924 4.28538 88.0722 4.25155 88.3631 4.25155C88.7884 4.24027 89.2136 4.31921 89.6053 4.48836C89.9522 4.63496 90.2544 4.8605 90.5006 5.1537C90.7468 5.45818 90.937 5.80776 91.0489 6.1799C91.172 6.60843 91.2392 7.05951 91.228 7.51058V12.9799H89.5829V7.51058C89.5829 6.89035 89.4486 6.41672 89.1577 6.07841C88.8779 5.7401 88.4527 5.57095 87.8707 5.57095C87.4567 5.57095 87.0538 5.67244 86.6957 5.86415C86.3152 6.07841 85.9683 6.34906 85.6773 6.67609V12.9799H84.0435V4.39815H85.0283C85.2297 4.37559 85.4199 4.52219 85.4535 4.72518L85.5766 5.58223Z" fill="white"/>
</g>
<defs>
<clipPath id="clip0_27_2560">
<rect width="92" height="34" fill="white"/>
</clipPath>
</defs>
</svg>
